<svg xmlns="http://www.w3.org/2000/svg" xmlns:xlink="http://www.w3.org/1999/xlink" viewBox="0 0 826.4 147.2">
  <defs>
    <clipPath id="clip-path" transform="translate(-44.4 -42.4)">
      <text transform="translate(44 147.8)" font-size="120" fill="none" font-family="GreatVibes-Regular, Great Vibes">Albert and Viktoriya</text>
    </clipPath>
  </defs>
  <title>99</title>
  <g id="mask">
    <g clip-path="url(#clip-path)">
      <g id="Viktoriya">
        <polyline id="a1" points="801.1 88.1 799.1 99.1 800.1 102.1 802.1 104.1 804.1 104.1 809.1 101.1 811.1 98.1 822.1 80.1" fill="none" stroke="#000" stroke-miterlimit="10" stroke-width="10"/>
        <polyline id="a" points="776.1 95.1 777.1 102.1 781.1 104.1 786.1 102.1 804.1 82.1 810.1 72.1" fill="none" stroke="#000" stroke-miterlimit="10" stroke-width="10"/>
        <polyline id="y1" points="758.1 79.1 747.1 113.1 737.1 128.1 723.1 139.1 712.1 142.1 707.1 141.1 703.1 137.1 704.1 130.1 710.1 123.1 721.1 118.1 740.1 113.1 761.1 105.1 777.1 92.1 784.1 77.1 795.1 67.1 802.1 64.1 809.1 66.1 812.1 70.1" fill="none" stroke="#000" stroke-miterlimit="10" stroke-width="10"/>
        <polyline id="y" points="734.1 81.1 729.1 98.1 731.1 103.1 735.1 104.1 740.1 102.1 752.1 85.1 768.1 63.1" fill="none" stroke="#000" stroke-miterlimit="10" stroke-width="10"/>
        <line id="i2" x1="724.1" y1="50.1" x2="719.1" y2="60.1" fill="none" stroke="#000" stroke-miterlimit="10" stroke-width="10"/>
        <polyline id="i" points="707.1 91.1 707.1 101.1 711.1 104.1 713.1 104.1 719.1 101.1 733.1 80.1 748.1 59.1" fill="none" stroke="#000" stroke-miterlimit="10" stroke-width="10"/>
        <polyline id="r1" points="682.1 68.1 697.1 70.1 699.1 70.1 695.1 80.1 689.1 97.1 690.1 103.1 694.1 104.1 698.1 101.1 705.1 92.1 719.1 64.1" fill="none" stroke="#000" stroke-miterlimit="10" stroke-width="10"/>
        <polyline id="r" points="654.1 89.1 653.4 99.4 657.1 103.1 664.1 103.1 671.1 96.1 680.1 79.1 688.1 60.1 692.1 51.1" fill="none" stroke="#000" stroke-miterlimit="10" stroke-width="10"/>
        <polygon id="o" points="640.1 86.1 653.1 67.1 660.1 65.1 664.1 67.1 666.1 70.1 666.1 77.1 663.1 87.1 655.1 98.1 650.1 102.1 646.1 104.1 639.1 103.1 638.1 96.1 640.1 86.1" fill="none" stroke="#000" stroke-miterlimit="10" stroke-width="10"/>
        <line id="t2" x1="611.1" y1="61.1" x2="645.1" y2="61.1" fill="none" stroke="#000" stroke-miterlimit="10" stroke-width="10"/>
        <polyline id="t1" points="565.1 107.1 574.1 86.1 591.1 70.1 601.1 66.1 604.1 68.1 604.1 70.1 604.1 73.1 600.1 78.1 595.1 81.1 588.1 84.1 586.1 88.1 584.1 95.1 587.1 100.1 592.1 104.1 600.1 103.1 606.1 98.1 620.1 80.1 628.1 72.1 639.1 54.1 643.1 44.1 643.1 36.1 640.1 35.1 635.1 40.1 621.1 66.1 613.1 93.1 615.1 101.1 619.1 104.1 624.1 103.1 638.1 87.1" fill="none" stroke="#000" stroke-miterlimit="10" stroke-width="10"/>
        <line id="i2-2" data-name="i2" x1="564.1" y1="52.1" x2="560.1" y2="59.1" fill="none" stroke="#000" stroke-miterlimit="10" stroke-width="10"/>
        <polyline id="i-2" data-name="i" points="559.1 63.1 548.1 94.1 547.1 100.1 549.1 103.1 552.1 104.1 556.1 103.1 561.1 99.1 576.1 75.1 604.1 29.1" fill="none" stroke="#000" stroke-miterlimit="10" stroke-width="10"/>
        <polyline id="v" points="463.1 50.1 472.1 46.1 477.1 48.1 481.1 56.1 479.1 67.1 474.1 76.1 464.1 84.1 451.1 88.1 439.1 85.1 428.1 72.1 429.1 53.1 434.1 40.1 451.1 20.1 470.1 10.1 484.1 5.1 496.1 6.1 507.1 11.1 511.1 24.1 490.1 87.1 486.1 104.1 487.1 112.1 493.1 115.1 500.1 113.1 523.1 96.1 539.1 73.1 548.1 51.1 547.1 40.1 544.1 35.1 538.1 32.1 531.1 33.1" fill="none" stroke="#000" stroke-miterlimit="10" stroke-width="10"/>
      </g>
      <g id="and">
        <polyline id="d2" points="381.1 86.1 379.1 98.1 383.1 104.1 388.1 103.1 394.1 96.1 405.1 77.1" fill="none" stroke="#000" stroke-miterlimit="10" stroke-width="10"/>
        <polyline id="d" points="357.1 87.1 357.1 102.1 363.1 104.1 369.1 99.1 381.1 83.1 412.1 29.1" fill="none" stroke="#000" stroke-miterlimit="10" stroke-width="10"/>
        <polyline id="n" points="307.1 108.1 319.1 91.1 329.1 80.1 336.1 74.1 347.1 69.1 334.1 96.1 336.1 103.1 340.1 104.1 344.1 103.1 350.1 96.1 355.1 88.1 364.1 76.1 374.1 66.1 380.1 64.1 384.1 64.1 391.1 67.1" fill="none" stroke="#000" stroke-miterlimit="10" stroke-width="10"/>
        <polyline id="a2" points="297.1 88.1 297.1 102.1 299.1 104.1 303.1 103.1 311.1 96.1 313.3 92.5 321.1 80.1 332.1 64.1" fill="none" stroke="#000" stroke-miterlimit="10" stroke-width="10"/>
        <polyline id="a-2" data-name="a" points="309.1 71.1 306.1 66.1 302.1 64.1 294.1 65.1 280.1 78.1 273.1 96.1 274.1 102.1 278.1 104.1 283.1 102.1 288.1 97.1 295.6 86.7 301.1 79.1 307.1 72.1" fill="none" stroke="#000" stroke-miterlimit="10" stroke-width="10"/>
      </g>
      <g id="Albert">
        <line id="t2-2" data-name="t2" x1="217.1" y1="61.1" x2="252.1" y2="61.1" fill="none" stroke="#000" stroke-miterlimit="10" stroke-width="10"/>
        <polyline id="t1-2" data-name="t1" points="223.1 82.1 229.1 78.1 239.1 65.1 244.1 56.1 250.1 42.1 249.1 35.1 245.1 35.1 239.1 42.1 227.1 67.1 220.1 90.1 220.1 99.1 224.1 104.1 229.1 103.1 233.1 100.1 239.1 92.1 246.1 79.1" fill="none" stroke="#000" stroke-miterlimit="10" stroke-width="10"/>
        <polyline id="r-2" data-name="r" points="196.1 69.1 210.1 71.1 203.1 86.1 199.1 97.1 199.1 102.1 202.1 103.1 204.1 104.1 208.1 102.1 222.1 82.1" fill="none" stroke="#000" stroke-miterlimit="10" stroke-width="10"/>
        <polyline id="e" points="156.1 85.1 165.1 86.1 171.1 84.1 179.1 80.1 185.1 73.1 186.1 67.1 183.1 64.1 177.1 65.1 168.1 73.1 159.1 89.1 159.1 98.1 162.1 102.1 165.1 104.1 172.1 104.1 177.1 101.1 183.1 94.1 190.1 81.1 202.1 51.1" fill="none" stroke="#000" stroke-miterlimit="10" stroke-width="10"/>
        <polyline id="b" points="123.1 78.1 118.1 96.1 121.1 103.1 127.1 104.1 137.1 100.1 145.1 90.1 150.1 76.1 149.1 69.1 145.1 65.1 137.1 64.1" fill="none" stroke="#000" stroke-miterlimit="10" stroke-width="10"/>
        <polyline id="l" points="61.1 79.1 59.1 104.1 64.1 111.1 69.1 111.1 77.1 107.1 90.1 89.1 104.1 75.1 117.1 56.1 122.1 46.1 124.1 40.1 124.1 33.1 122.1 32.1 115.1 36.1 105.1 56.1 95.1 81.1 92.1 98.1 94.1 102.1 98.1 104.1 100.1 104.1 105.1 102.1 111.1 96.1 131.1 62.1 152.5 30.2" fill="none" stroke="#000" stroke-miterlimit="10" stroke-width="10"/>
        <polyline id="a-3" data-name="a" points="14.1 20.1 8.1 28.1 10.1 37.1 16.1 41.1 28.1 47.1 38.1 50.1 62.1 51.1 81.1 47.1 95.1 40.1 100.1 30.1 99.1 22.1 94.1 17.1 86.1 14.1 71.1 15.1 50.1 23.1 31.1 40.1 15.1 61.1 7.1 82.1 5.1 93.1 8.1 105.1 13.1 109.1 20.1 109.1 26.1 108.1 39.1 100.1 56.1 84.1 62.8 75.4 80.1 53.1" fill="none" stroke="#000" stroke-miterlimit="10" stroke-width="10"/>
      </g>
    </g>
  </g>
</svg>